<?xml version="1.0" encoding="UTF-8"?>
<svg width="513px" height="512px" viewBox="0 0 513 512" version="1.1" xmlns="http://www.w3.org/2000/svg" xmlns:xlink="http://www.w3.org/1999/xlink">
    <!-- Generator: Sketch 55.2 (78181) - https://sketchapp.com -->
    <title>Agency</title>
    <desc>Created with Sketch.</desc>
    <g id="Agency" stroke="none" stroke-width="1" fill="none" fill-rule="evenodd" transform="translate(1.000000, 0.000000)">
        <g id="agency-logo" transform="translate(15.000000, 4.000000)" fill-rule="nonzero">
            <g id="Group-2">
                <path d="M469.425,292.925 L270.925,491.425 C254.625,507.725 228.025,507.725 211.725,491.425 L13.325,292.925 C-2.975,276.625 -2.975,250.025 13.325,233.725 L211.725,35.325 C228.025,19.025 254.625,19.025 270.925,35.325 L469.325,233.725 C485.725,250.025 485.725,276.625 469.425,292.925 Z" id="Path" fill="#03A9F4"></path>
                <path d="M468.325,269.925 L269.925,468.325 C253.625,484.625 227.025,484.625 210.725,468.325 L12.225,269.925 C-4.075,253.625 -4.075,227.025 12.225,210.725 L210.625,12.225 C226.925,-4.075 253.525,-4.075 269.825,12.225 L468.225,210.625 C484.625,226.925 484.625,253.625 468.325,269.925 Z" id="Path" fill="#2196F3"></path>
            </g>
            <g id="Group" transform="translate(92.000000, 133.000000)" fill="#FFFFFF">
                <path d="M297.214074,83.9108835 L297.214074,83.9108835 L297.214074,83.9108835 C297.214074,85.2118202 297.279491,86.7492626 297.410323,88.5232107 L297.410323,88.5232107 L297.410323,88.5232107 C297.541466,90.2971588 297.607037,92.3076126 297.607037,94.5545721 L297.607037,94.5545721 L297.607037,94.5545721 C297.607037,97.393262 297.148503,100.911789 296.231435,105.110154 L296.231435,105.110154 L296.231435,105.110154 C295.314057,109.308518 293.84002,113.714019 291.809325,118.326657 L291.809325,118.326657 L291.809325,118.326657 C289.77832,122.938985 287.059668,127.551312 283.653371,132.163639 L283.653371,132.163639 L283.653371,132.163639 C280.246763,136.776277 276.054075,140.915748 271.075306,144.582053 L271.075306,144.582053 L271.075306,144.582053 C266.096538,148.248046 260.233254,151.234203 253.485455,153.540522 L253.485455,153.540522 L253.485455,153.540522 C246.737967,155.846841 239.040547,157 230.393195,157 L230.393195,157 L230.393195,157 C222.662912,157 214.768778,155.669384 206.710793,153.008151 L206.710793,153.008151 L206.710793,153.008151 C198.653119,150.347228 191.315953,146.207913 184.699297,140.590203 L184.699297,140.590203 L184.699297,140.590203 C178.082951,134.972494 172.645648,127.817342 168.387389,119.124748 L168.387389,119.124748 L168.387389,119.124748 C164.12913,110.432153 162,100.054184 162,87.9908398 L162,87.9908398 L162,87.9908398 C162,80.4217253 163.080919,72.9708636 165.242757,65.6382548 L165.242757,65.6382548 L165.242757,65.6382548 C167.404595,58.305646 170.287097,51.3869998 173.890263,44.8823163 L173.890263,44.8823163 L173.890263,44.8823163 C177.49343,38.3776327 181.751534,32.3756404 186.664576,26.8763391 L186.664576,26.8763391 L186.664576,26.8763391 C191.577929,21.3767271 196.753256,16.6459917 202.190559,12.6841329 L202.190559,12.6841329 L202.190559,12.6841329 C207.628172,8.72227402 213.262188,5.61770947 219.092609,3.37043921 L219.092609,3.37043921 L219.092609,3.37043921 C224.923029,1.12347974 230.589599,0 236.092318,0 L236.092318,0 L236.092318,0 C245.657048,0 253.551182,1.36014082 259.77472,4.08042247 L259.77472,4.08042247 L259.77472,4.08042247 C265.998258,6.80039333 270.944319,10.1709879 274.612902,14.1922063 L274.612902,14.1922063 L274.612902,14.1922063 C278.281484,18.2131138 280.869148,22.5002069 282.375893,27.0534853 L282.375893,27.0534853 L282.375893,27.0534853 C283.882638,31.6067638 284.63601,35.7165552 284.63601,39.3828596 L284.63601,39.3828596 L284.63601,39.3828596 C284.63601,42.9310666 283.686079,46.9818093 281.786216,51.5350878 L281.786216,51.5350878 L281.786216,51.5350878 C279.886354,56.0883662 276.774584,60.405139 272.450909,64.4854061 L272.450909,64.4854061 L272.450909,64.4854061 C268.127233,68.5656732 262.493371,71.9953165 255.549324,74.7743361 L255.549324,74.7743361 L255.549324,74.7743361 C248.604966,77.5536664 240.088602,78.9433316 230.000233,78.9433316 L230.000233,78.9433316 L230.000233,78.9433316 C224.628346,78.9433316 219.813273,78.2633389 215.555014,76.9033535 L215.555014,76.9033535 L215.555014,76.9033535 C211.296754,75.5433681 207.529892,73.8284687 204.254427,71.7586554 L204.254427,71.7586554 L204.254427,71.7586554 C199.275969,69.1350272 195.640249,66.6110049 193.347269,64.1865884 C195.122189,57.6014122 195.638389,53.0021379 194.895868,50.3887655 C194.734032,49.8195668 194.753099,48.3296742 194.471747,47.9488099 L193.601648,50.3710509 L190.104047,58.1873931 L190.104047,58.1873931 C187.74565,65.5200019 186.566452,74.0944987 186.566452,83.9108835 L186.566452,83.9108835 L186.566452,83.9108835 C186.566452,90.6520727 187.647371,96.7132692 189.809209,102.094473 L189.809209,102.094473 L189.809209,102.094473 C191.971046,107.475677 194.951828,112.05848 198.751553,115.842881 L198.751553,115.842881 L198.751553,115.842881 C202.550969,119.627283 207.071203,122.524867 212.312257,124.535631 L212.312257,124.535631 L212.312257,124.535631 C217.553001,126.546085 223.31785,127.551312 229.606805,127.551312 L229.606805,127.551312 L229.606805,127.551312 C237.46823,127.551312 244.346862,126.339104 250.242699,123.914687 L250.242699,123.914687 L250.242699,123.914687 C256.138845,121.490271 261.281465,118.44491 265.670557,114.778606 L265.670557,114.778606 L265.670557,114.778606 C270.059649,111.112301 273.859219,107.120763 277.069268,102.80399 L277.069268,102.80399 L277.069268,102.80399 C280.279316,98.4872173 283.063539,94.5252031 285.421936,90.9179474 L285.421936,90.9179474 L285.421936,90.9179474 C287.780332,87.3110025 289.843891,84.3248462 291.612611,81.9594785 L291.612611,81.9594785 L291.612611,81.9594785 C293.381331,79.5941108 295.117343,78.4704756 296.820647,78.5885731 L296.820647,78.5885731 L296.820647,78.5885731 C297.606882,78.5885731 298,79.1799927 298,80.362832 L298,80.362832 L298,80.362832 C298,80.9539408 297.934429,81.545205 297.803286,82.1366247 L297.803286,82.1366247 L297.803286,82.1366247 C297.672454,82.7280443 297.47605,83.3194639 297.214074,83.9108835 Z M238.057597,17.917404 L238.057597,17.917404 L238.057597,17.917404 C235.69951,17.917404 232.653313,18.3608911 228.919004,19.2478651 L228.919004,19.2478651 L228.919004,19.2478651 C225.185005,20.1351499 221.254447,21.7022721 217.12733,23.9492316 L217.12733,23.9492316 L217.12733,23.9492316 C213.000213,26.196191 208.905805,29.2415515 204.844104,33.0853128 L204.844104,33.0853128 L204.844104,33.0853128 L195.546,45.9074333 L194.231319,47.7208508 C195.122344,48.0294581 195.70086,48.2300683 195.966866,48.3226816 C204.01772,51.1253207 210.153985,53.4380107 214.37566,55.2602855 L214.37566,55.2602855 L214.37566,55.2602855 C218.895895,57.2116906 223.972943,58.1873931 229.606805,58.1873931 L229.606805,58.1873931 L229.606805,58.1873931 C234.061623,58.1873931 237.894056,57.5074004 241.104105,56.147415 L241.104105,56.147415 L241.104105,56.147415 C244.314154,54.7874295 246.967389,53.0430058 249.06381,50.9141438 L249.06381,50.9141438 L249.06381,50.9141438 C251.159922,48.7852818 252.666667,46.4494384 253.584045,43.9066137 L253.584045,43.9066137 L253.584045,43.9066137 C254.501113,41.3640998 254.959647,38.8509549 254.959647,36.367179 L254.959647,36.367179 L254.959647,36.367179 C254.959647,31.0453347 253.452902,26.6398334 250.439413,23.1506752 L250.439413,23.1506752 L250.439413,23.1506752 C247.425923,19.6618278 243.298651,17.917404 238.057597,17.917404 Z" id="Shape"></path>
                <path d="M0,50.9706123 L0,50.9706123 L0,50.9706123 C0,50.24221 6.2510786,43.9898828 18.7532358,32.2136306 L18.7532358,32.2136306 L18.7532358,32.2136306 C31.255393,20.4373783 38.8507813,14.5492522 41.5394005,14.5492522 L41.5394005,14.5492522 L41.5394005,14.5492522 C44.2280198,14.5492522 45.5723294,19.405527 45.5723294,29.1180766 L45.5723294,29.1180766 L45.5723294,29.1180766 C45.5723294,48.7855613 48.4625563,69.485053 54.24301,91.2165517 L54.24301,91.2165517 L54.24301,91.2165517 C60.0234638,112.947739 66.9466195,132.311619 75.0124773,149.308191 L75.0124773,149.308191 L75.0124773,149.308191 C83.0783351,166.305075 91.4130548,182.087696 100.016636,196.656053 L100.016636,196.656053 L100.016636,196.656053 C108.620529,211.224721 115.812702,222.454672 121.593155,230.345904 L121.593155,230.345904 L121.593155,230.345904 C127.373609,238.237137 130.80156,242.546954 131.877008,243.275356 L131.877008,243.275356 L131.877008,243.275356 C141.825054,128.426755 159.973312,55.9483914 186.321781,25.8402664 L186.321781,25.8402664 L186.321781,25.8402664 C194.387638,16.856119 202.856867,12.2426969 211.729465,12 L211.729465,12 L211.729465,12 C220.554536,14.1344243 226.311381,16.5370926 229,19.2080048 L222.61814,16.0063683 L222.61814,16.0063683 C219.989475,17.5376331 213.878963,23.2287043 204.286603,33.0795819 C189.898063,47.8558981 185.515195,60.8045104 173.416408,95.4047091 L173.416408,95.4047091 L173.416408,95.4047091 C165.35055,118.471508 159.032217,143.541569 154.461409,170.614892 L154.461409,170.614892 L154.461409,170.614892 C149.890912,197.687904 147.605663,219.722852 147.605663,236.719736 L147.605663,236.719736 L149.621895,268.042124 L149.621895,268.042124 C137.79197,281.639382 129.793366,290.198265 125.626084,293.718772 L125.626084,293.718772 L125.626084,293.718772 C121.458802,297.239591 118.165205,299 115.745292,299 L115.745292,299 L115.745292,299 C111.443501,299 103.108782,289.89466 90.7411329,271.68398 L90.7411329,271.68398 L90.7411329,271.68398 C78.3734843,253.4733 65.4681119,231.863305 52.0250156,206.853996 L52.0250156,206.853996 L52.0250156,206.853996 C38.5819193,181.844687 26.617486,154.528667 16.1317155,124.905936 L16.1317155,124.905936 L16.1317155,124.905936 C5.64625576,95.2832048 0.269017247,70.6380969 0,50.9706123 Z" id="Path"></path>
            </g>
        </g>
    </g>
</svg>